<svg width="31" height="30" viewBox="0 0 31 30" fill="none" xmlns="http://www.w3.org/2000/svg">
<path d="M7.0625 4.6875C6.03688 4.6875 5.1875 5.53688 5.1875 6.5625V23.4375C5.1875 24.4631 6.03688 25.3125 7.0625 25.3125H23.9375C24.9631 25.3125 25.8125 24.4631 25.8125 23.4375V6.5625C25.8125 5.53688 24.9631 4.6875 23.9375 4.6875H7.0625ZM7.0625 6.5625H23.9375V23.4375H19.0738V17.1094H21.5056L21.8572 14.2969H19.0747V12.48C19.0747 11.6606 19.2753 11.1037 20.4509 11.1037H21.9744V8.55469C21.7147 8.52187 20.8137 8.46656 19.7778 8.46656C17.6169 8.46656 16.145 9.76687 16.145 12.1875V14.2969H13.6841V17.1094H16.1441V23.4375H7.0625V6.5625Z" fill="white"/>
</svg>
