<svg width="20" height="20" viewBox="0 0 20 20" fill="none" xmlns="http://www.w3.org/2000/svg">
<path d="M4.375 3.125C3.69125 3.125 3.125 3.69125 3.125 4.375V15.625C3.125 16.3088 3.69125 16.875 4.375 16.875H15.625C16.3088 16.875 16.875 16.3088 16.875 15.625V4.375C16.875 3.69125 16.3088 3.125 15.625 3.125H4.375ZM4.375 4.375H15.625V15.625H12.3825V11.4062H14.0037L14.2381 9.53125H12.3831V8.32C12.3831 7.77375 12.5169 7.4025 13.3006 7.4025H14.3162V5.70312C14.1431 5.68125 13.5425 5.64438 12.8519 5.64438C11.4113 5.64438 10.43 6.51125 10.43 8.125V9.53125H8.78937V11.4062H10.4294V15.625H4.375V4.375Z" fill="#8D8D8D"/>
</svg>
