<svg width="20" height="20" viewBox="0 0 20 20" fill="none" xmlns="http://www.w3.org/2000/svg">
<path d="M12.3217 7.69727H8.27825C7.48491 7.69727 6.84166 8.3336 6.84166 9.11795V11.1169C6.84166 11.9019 7.48491 12.5375 8.27825 12.5375H12.3217C13.1151 12.5375 13.7583 11.9012 13.7583 11.1169V9.11795C13.7583 8.33291 13.1151 7.69727 12.3217 7.69727ZM11.3506 10.2149L9.45893 11.1072C9.44735 11.1127 9.43459 11.1151 9.42181 11.1143C9.40904 11.1136 9.39666 11.1096 9.38584 11.1028C9.37501 11.0959 9.36608 11.0865 9.35987 11.0753C9.35367 11.0641 9.35039 11.0515 9.35034 11.0387V9.19887C9.35045 9.18591 9.35388 9.17319 9.36029 9.16192C9.3667 9.15065 9.37589 9.14121 9.38697 9.13449C9.39806 9.12777 9.41068 9.12399 9.42364 9.12352C9.43659 9.12304 9.44945 9.12589 9.461 9.13178L11.352 10.0794C11.3645 10.0859 11.3748 10.0957 11.3821 10.1077C11.3893 10.1197 11.393 10.1335 11.3929 10.1476C11.3927 10.1616 11.3887 10.1753 11.3812 10.1872C11.3738 10.1991 11.3632 10.2087 11.3506 10.2149Z" fill="#8D8D8D"/>
<path d="M6.15001 4.56668C5.78313 4.56668 5.43127 4.71243 5.17185 4.97185C4.91242 5.23128 4.76668 5.58313 4.76668 5.95002V14.25C4.76668 14.6169 4.91242 14.9688 5.17185 15.2282C5.43127 15.4876 5.78313 15.6334 6.15001 15.6334H14.45C14.8169 15.6334 15.1688 15.4876 15.4282 15.2282C15.6876 14.9688 15.8333 14.6169 15.8333 14.25V5.95002C15.8333 5.58313 15.6876 5.23128 15.4282 4.97185C15.1688 4.71243 14.8169 4.56668 14.45 4.56668H6.15001ZM6.15001 3.18335H14.45C15.1838 3.18335 15.8875 3.47484 16.4063 3.99369C16.9252 4.51254 17.2167 5.21625 17.2167 5.95002V14.25C17.2167 14.9838 16.9252 15.6875 16.4063 16.2063C15.8875 16.7252 15.1838 17.0167 14.45 17.0167H6.15001C5.41625 17.0167 4.71254 16.7252 4.19368 16.2063C3.67483 15.6875 3.38335 14.9838 3.38335 14.25V5.95002C3.38335 5.21625 3.67483 4.51254 4.19368 3.99369C4.71254 3.47484 5.41625 3.18335 6.15001 3.18335Z" fill="#8D8D8D"/>
</svg>
