<svg width="30" height="30" viewBox="0 0 30 30" fill="none" xmlns="http://www.w3.org/2000/svg">
<path fill-rule="evenodd" clip-rule="evenodd" d="M11.4984 4.89928C12.5981 4.84865 12.9487 4.8374 15.75 4.8374C18.5512 4.8374 18.9019 4.84959 20.0006 4.89928C21.0994 4.94896 21.8494 5.12428 22.5056 5.37834C23.1928 5.63803 23.8162 6.04396 24.3319 6.56896C24.8569 7.08365 25.2619 7.70615 25.5206 8.39428C25.7756 9.05053 25.95 9.80053 26.0006 10.8974C26.0512 11.999 26.0625 12.3496 26.0625 15.1499C26.0625 17.9511 26.0503 18.3018 26.0006 19.4015C25.9509 20.4983 25.7756 21.2483 25.5206 21.9046C25.2619 22.5928 24.8562 23.2163 24.3319 23.7318C23.8162 24.2568 23.1928 24.6618 22.5056 24.9205C21.8494 25.1755 21.0994 25.3499 20.0025 25.4005C18.9019 25.4511 18.5512 25.4624 15.75 25.4624C12.9487 25.4624 12.5981 25.4502 11.4984 25.4005C10.4016 25.3508 9.65156 25.1755 8.99531 24.9205C8.30711 24.6617 7.68358 24.2561 7.16812 23.7318C6.64348 23.2168 6.23748 22.5935 5.97844 21.9055C5.72437 21.2493 5.55 20.4993 5.49937 19.4024C5.44875 18.3008 5.4375 17.9502 5.4375 15.1499C5.4375 12.3487 5.44969 11.998 5.49937 10.8993C5.54906 9.80053 5.72437 9.05053 5.97844 8.39428C6.23786 7.70623 6.64417 7.08301 7.16906 6.56803C7.68379 6.0435 8.30669 5.63751 8.99437 5.37834C9.65062 5.12428 10.4006 4.9499 11.4975 4.89928H11.4984ZM19.9172 6.75553C18.8297 6.70584 18.5034 6.69553 15.75 6.69553C12.9966 6.69553 12.6703 6.70584 11.5828 6.75553C10.5769 6.80146 10.0312 6.96928 9.6675 7.11084C9.18656 7.29834 8.8425 7.52053 8.48156 7.88146C8.13942 8.21433 7.87611 8.61954 7.71094 9.0674C7.56937 9.43115 7.40156 9.97678 7.35562 10.9827C7.30594 12.0702 7.29562 12.3965 7.29562 15.1499C7.29562 17.9033 7.30594 18.2296 7.35562 19.3171C7.40156 20.323 7.56937 20.8687 7.71094 21.2324C7.87594 21.6796 8.13937 22.0855 8.48156 22.4183C8.81437 22.7605 9.22031 23.024 9.6675 23.189C10.0312 23.3305 10.5769 23.4983 11.5828 23.5443C12.6703 23.594 12.9956 23.6043 15.75 23.6043C18.5044 23.6043 18.8297 23.594 19.9172 23.5443C20.9231 23.4983 21.4687 23.3305 21.8325 23.189C22.3134 23.0015 22.6575 22.7793 23.0184 22.4183C23.3606 22.0855 23.6241 21.6796 23.7891 21.2324C23.9306 20.8687 24.0984 20.323 24.1444 19.3171C24.1941 18.2296 24.2044 17.9033 24.2044 15.1499C24.2044 12.3965 24.1941 12.0702 24.1444 10.9827C24.0984 9.97678 23.9306 9.43115 23.7891 9.0674C23.6016 8.58646 23.3794 8.2424 23.0184 7.88146C22.6856 7.53934 22.2803 7.27604 21.8325 7.11084C21.4687 6.96928 20.9231 6.80146 19.9172 6.75553ZM14.4328 18.329C15.1684 18.6352 15.9875 18.6765 16.7502 18.4459C17.5129 18.2153 18.1719 17.727 18.6146 17.0645C19.0573 16.402 19.2563 15.6063 19.1775 14.8134C19.0988 14.0205 18.7472 13.2796 18.1828 12.7171C17.823 12.3575 17.388 12.0822 16.9091 11.911C16.4301 11.7397 15.9192 11.6768 15.413 11.7267C14.9068 11.7767 14.418 11.9382 13.9817 12.1997C13.5454 12.4612 13.1726 12.8162 12.89 13.2391C12.6074 13.662 12.4221 14.1424 12.3474 14.6455C12.2727 15.1486 12.3105 15.662 12.458 16.1488C12.6056 16.6356 12.8592 17.0836 13.2007 17.4606C13.5421 17.8376 13.963 18.1341 14.4328 18.329ZM12.0019 11.4018C12.4941 10.9096 13.0784 10.5191 13.7215 10.2527C14.3646 9.98636 15.0539 9.84925 15.75 9.84925C16.4461 9.84925 17.1354 9.98636 17.7785 10.2527C18.4216 10.5191 19.0059 10.9096 19.4981 11.4018C19.9903 11.894 20.3808 12.4783 20.6472 13.1214C20.9135 13.7645 21.0506 14.4538 21.0506 15.1499C21.0506 15.846 20.9135 16.5353 20.6472 17.1784C20.3808 17.8215 19.9903 18.4058 19.4981 18.898C18.5041 19.8921 17.1558 20.4505 15.75 20.4505C14.3442 20.4505 12.9959 19.8921 12.0019 18.898C11.0078 17.904 10.4493 16.5557 10.4493 15.1499C10.4493 13.7441 11.0078 12.3958 12.0019 11.4018ZM22.2262 10.6387C22.3482 10.5236 22.4459 10.3852 22.5134 10.2318C22.5809 10.0783 22.617 9.91281 22.6194 9.74515C22.6219 9.57749 22.5907 9.41104 22.5276 9.25566C22.4646 9.10028 22.371 8.95913 22.2525 8.84056C22.1339 8.722 21.9927 8.62842 21.8374 8.56539C21.682 8.50235 21.5155 8.47113 21.3479 8.47357C21.1802 8.47602 21.0147 8.51208 20.8613 8.57962C20.7078 8.64716 20.5694 8.7448 20.4544 8.86678C20.2306 9.10399 20.1081 9.41908 20.1128 9.74515C20.1176 10.0712 20.2492 10.3826 20.4798 10.6132C20.7104 10.8438 21.0218 10.9754 21.3479 10.9802C21.6739 10.9849 21.989 10.8624 22.2262 10.6387Z" fill="white"/>
</svg>
