<svg width="15" height="15" viewBox="0 0 15 15" fill="none" xmlns="http://www.w3.org/2000/svg">
<path d="M14.4999 13.7928L10.7239 10.0168C11.6313 8.92747 12.0838 7.53023 11.9873 6.11577C11.8907 4.7013 11.2526 3.37851 10.2056 2.42257C9.15855 1.46663 7.78331 0.951151 6.36591 0.983357C4.94852 1.01556 3.59811 1.59298 2.59561 2.59548C1.5931 3.59799 1.01568 4.9484 0.983479 6.36579C0.951273 7.78318 1.46676 9.15843 2.42269 10.2054C3.37863 11.2524 4.70142 11.8906 6.11589 11.9871C7.53035 12.0837 8.92759 11.6312 10.0169 10.7238L13.7929 14.4998L14.4999 13.7928ZM1.99994 6.49981C1.99994 5.6098 2.26386 4.73977 2.75832 3.99975C3.25279 3.25973 3.95559 2.68295 4.77786 2.34236C5.60013 2.00176 6.50493 1.91265 7.37784 2.08628C8.25076 2.25991 9.05258 2.6885 9.68192 3.31783C10.3113 3.94717 10.7398 4.74899 10.9135 5.62191C11.0871 6.49482 10.998 7.39962 10.6574 8.22189C10.3168 9.04416 9.74002 9.74696 9 10.2414C8.25998 10.7359 7.38995 10.9998 6.49994 10.9998C5.30687 10.9985 4.16304 10.524 3.31942 9.68033C2.47579 8.83671 2.00126 7.69288 1.99994 6.49981Z" fill="#282828" fill-opacity="0.7"/>
</svg>
