<svg width="16" height="8" viewBox="0 0 16 8" fill="none" xmlns="http://www.w3.org/2000/svg">
<path fill-rule="evenodd" clip-rule="evenodd" d="M0.851657 0.226656C0.903908 0.174273 0.965981 0.132712 1.03432 0.104355C1.10266 0.0759975 1.17592 0.0614014 1.24991 0.0614014C1.32389 0.0614014 1.39716 0.0759975 1.46549 0.104355C1.53383 0.132712 1.59591 0.174273 1.64816 0.226656L7.9999 6.57953L14.3517 0.226656C14.4039 0.174358 14.466 0.132872 14.5344 0.104568C14.6027 0.0762638 14.6759 0.0616959 14.7499 0.0616959C14.8239 0.0616959 14.8971 0.0762638 14.9654 0.104568C15.0338 0.132872 15.0959 0.174358 15.1482 0.226656C15.2004 0.278955 15.2419 0.341043 15.2702 0.409375C15.2985 0.477707 15.3131 0.550944 15.3131 0.624906C15.3131 0.698868 15.2985 0.772106 15.2702 0.840438C15.2419 0.908769 15.2004 0.970857 15.1482 1.02316L8.39815 7.77315C8.3459 7.82553 8.28383 7.86709 8.21549 7.89545C8.14715 7.92381 8.07389 7.93841 7.9999 7.93841C7.92592 7.93841 7.85265 7.92381 7.78432 7.89545C7.71598 7.86709 7.6539 7.82553 7.60165 7.77315L0.851657 1.02316C0.799273 0.970905 0.757713 0.908832 0.729355 0.840494C0.700998 0.772156 0.686401 0.698894 0.686401 0.624906C0.686401 0.550918 0.700998 0.477657 0.729355 0.409318C0.757713 0.34098 0.799273 0.278908 0.851657 0.226656Z" fill="#282828"/>
</svg>
