<svg width="20" height="20" viewBox="0 0 20 20" fill="none" xmlns="http://www.w3.org/2000/svg">
<path d="M5.67625 3.125C5.00043 3.12763 4.35304 3.39727 3.87515 3.87515C3.39727 4.35304 3.12763 5.00043 3.125 5.67625V14.3237C3.12763 14.9996 3.39727 15.647 3.87515 16.1248C4.35304 16.6027 5.00043 16.8724 5.67625 16.875H14.3237C14.9996 16.8724 15.647 16.6027 16.1248 16.1248C16.6027 15.647 16.8724 14.9996 16.875 14.3237V5.67625C16.8724 5.00043 16.6027 4.35304 16.1248 3.87515C15.647 3.39727 14.9996 3.12763 14.3237 3.125H5.67625ZM5.67625 4.375H14.3237C15.0487 4.375 15.625 4.95125 15.625 5.67625V14.3237C15.625 15.0487 15.0487 15.625 14.3237 15.625H5.67625C5.50507 15.6261 5.33537 15.5932 5.17701 15.5281C5.01865 15.4631 4.87477 15.3673 4.75372 15.2463C4.63267 15.1252 4.53687 14.9814 4.47185 14.823C4.40684 14.6646 4.37392 14.4949 4.375 14.3237V5.67625C4.375 4.95125 4.95125 4.375 5.67625 4.375ZM9.82438 7.64375C9.365 7.63937 8.97438 7.64375 8.755 7.75125C8.60813 7.8225 8.49625 7.98312 8.56437 7.99062C8.65 8.00312 8.8425 8.04437 8.94562 8.18375C9.07687 8.36188 9.0725 8.765 9.0725 8.765C9.0725 8.765 9.14562 9.87313 8.89375 10.0125C8.72062 10.1075 8.48375 9.91437 7.97125 9.03312C7.71 8.57938 7.5125 8.07875 7.5125 8.07875C7.5125 8.07875 7.475 7.98563 7.4075 7.93688C7.32438 7.87625 7.20937 7.85625 7.20937 7.85625L5.98625 7.86375C5.98625 7.86375 5.80313 7.87125 5.7375 7.94938C5.67625 8.0225 5.7325 8.16625 5.7325 8.16625C5.7325 8.16625 6.68938 10.405 7.77313 11.5331C8.76688 12.5687 9.895 12.5 9.895 12.5H10.4075C10.4075 12.5 10.5613 12.4831 10.6394 12.4C10.7131 12.3219 10.7106 12.175 10.7106 12.175C10.7106 12.175 10.7006 11.4894 11.0181 11.3869C11.3331 11.2887 11.7331 12.0506 12.1606 12.3438C12.4856 12.5656 12.7319 12.5169 12.7319 12.5169L13.875 12.5C13.875 12.5 14.4706 12.4631 14.1875 11.9919C14.1656 11.9556 14.0237 11.6456 13.3406 11.0106C12.6225 10.3469 12.7181 10.4544 13.5819 9.30438C14.1069 8.60375 14.3169 8.17625 14.2506 7.99062C14.1881 7.8175 13.8019 7.86375 13.8019 7.86375L12.515 7.87125C12.515 7.87125 12.42 7.85875 12.3494 7.90062C12.3008 7.93669 12.2621 7.98441 12.2369 8.03937C12.2369 8.03937 12.0319 8.58125 11.7606 9.04313C11.1894 10.0144 10.9575 10.0681 10.865 10.0075C10.6475 9.86562 10.7013 9.44063 10.7013 9.14062C10.7013 8.19562 10.845 7.805 10.4231 7.70312C10.2838 7.66875 10.1813 7.64687 9.825 7.64375H9.82438Z" fill="#8D8D8D"/>
</svg>
