<svg width="31" height="30" viewBox="0 0 31 30" fill="none" xmlns="http://www.w3.org/2000/svg">
<path d="M9.01437 4.6875C8.00064 4.69145 7.02955 5.09591 6.31273 5.81273C5.59591 6.52955 5.19145 7.50064 5.1875 8.51437V21.4856C5.19145 22.4994 5.59591 23.4704 6.31273 24.1873C7.02955 24.9041 8.00064 25.3085 9.01437 25.3125H21.9856C22.9994 25.3085 23.9704 24.9041 24.6873 24.1873C25.4041 23.4704 25.8085 22.4994 25.8125 21.4856V8.51437C25.8085 7.50064 25.4041 6.52955 24.6873 5.81273C23.9704 5.09591 22.9994 4.69145 21.9856 4.6875H9.01437ZM9.01437 6.5625H21.9856C23.0731 6.5625 23.9375 7.42687 23.9375 8.51437V21.4856C23.9375 22.5731 23.0731 23.4375 21.9856 23.4375H9.01437C8.7576 23.4391 8.50306 23.3897 8.26551 23.2922C8.02797 23.1947 7.81215 23.051 7.63058 22.8694C7.44901 22.6878 7.3053 22.472 7.20778 22.2345C7.11026 21.9969 7.06088 21.7424 7.0625 21.4856V8.51437C7.0625 7.42687 7.92687 6.5625 9.01437 6.5625ZM15.2366 11.4656C14.5475 11.4591 13.9616 11.4656 13.6325 11.6269C13.4122 11.7338 13.2444 11.9747 13.3466 11.9859C13.475 12.0047 13.7638 12.0666 13.9184 12.2756C14.1153 12.5428 14.1087 13.1475 14.1087 13.1475C14.1087 13.1475 14.2184 14.8097 13.8406 15.0188C13.5809 15.1613 13.2256 14.8716 12.4569 13.5497C12.065 12.8691 11.7688 12.1181 11.7688 12.1181C11.7688 12.1181 11.7125 11.9784 11.6113 11.9053C11.4866 11.8144 11.3141 11.7844 11.3141 11.7844L9.47937 11.7956C9.47937 11.7956 9.20469 11.8069 9.10625 11.9241C9.01438 12.0338 9.09875 12.2494 9.09875 12.2494C9.09875 12.2494 10.5341 15.6075 12.1597 17.2997C13.6503 18.8531 15.3425 18.75 15.3425 18.75H16.1112C16.1112 18.75 16.3419 18.7247 16.4591 18.6C16.5697 18.4828 16.5659 18.2625 16.5659 18.2625C16.5659 18.2625 16.5509 17.2341 17.0272 17.0803C17.4997 16.9331 18.0997 18.0759 18.7409 18.5156C19.2284 18.8484 19.5978 18.7753 19.5978 18.7753L21.3125 18.75C21.3125 18.75 22.2059 18.6947 21.7812 17.9878C21.7484 17.9334 21.5356 17.4684 20.5109 16.5159C19.4337 15.5203 19.5772 15.6816 20.8728 13.9566C21.6603 12.9056 21.9753 12.2644 21.8759 11.9859C21.7822 11.7262 21.2028 11.7956 21.2028 11.7956L19.2725 11.8069C19.2725 11.8069 19.13 11.7881 19.0241 11.8509C18.9512 11.905 18.8932 11.9766 18.8553 12.0591C18.8553 12.0591 18.5478 12.8719 18.1409 13.5647C17.2841 15.0216 16.9363 15.1022 16.7975 15.0112C16.4713 14.7984 16.5519 14.1609 16.5519 13.7109C16.5519 12.2934 16.7675 11.7075 16.1347 11.5547C15.9256 11.5031 15.7719 11.4703 15.2375 11.4656H15.2366Z" fill="white"/>
</svg>
