<svg width="20" height="20" viewBox="0 0 20 20" fill="none" xmlns="http://www.w3.org/2000/svg">
<path fill-rule="evenodd" clip-rule="evenodd" d="M7.66559 3.26623C8.39872 3.23248 8.63247 3.22498 10.5 3.22498C12.3675 3.22498 12.6012 3.2331 13.3337 3.26623C14.0662 3.29935 14.5662 3.41623 15.0037 3.5856C15.4618 3.75873 15.8775 4.02935 16.2212 4.37935C16.5712 4.72248 16.8412 5.13748 17.0137 5.59623C17.1837 6.03373 17.3 6.53373 17.3337 7.26498C17.3675 7.99935 17.375 8.2331 17.375 10.1C17.375 11.9675 17.3668 12.2012 17.3337 12.9344C17.3006 13.6656 17.1837 14.1656 17.0137 14.6031C16.8412 15.0619 16.5708 15.4776 16.2212 15.8212C15.8775 16.1712 15.4618 16.4412 15.0037 16.6137C14.5662 16.7837 14.0662 16.9 13.335 16.9337C12.6012 16.9675 12.3675 16.975 10.5 16.975C8.63247 16.975 8.39872 16.9668 7.66559 16.9337C6.93434 16.9006 6.43434 16.7837 5.99684 16.6137C5.53804 16.4412 5.12236 16.1708 4.77872 15.8212C4.42896 15.4779 4.15829 15.0624 3.98559 14.6037C3.81622 14.1662 3.69997 13.6662 3.66622 12.935C3.63247 12.2006 3.62497 11.9668 3.62497 10.1C3.62497 8.23248 3.63309 7.99873 3.66622 7.26623C3.69934 6.53373 3.81622 6.03373 3.98559 5.59623C4.15855 5.13753 4.42942 4.72205 4.77934 4.37873C5.12249 4.02904 5.53776 3.75838 5.99622 3.5856C6.43372 3.41623 6.93372 3.29998 7.66497 3.26623H7.66559ZM13.2781 4.50373C12.5531 4.4706 12.3356 4.46373 10.5 4.46373C8.66434 4.46373 8.44684 4.4706 7.72184 4.50373C7.05122 4.53435 6.68747 4.64623 6.44497 4.7406C6.12434 4.8656 5.89497 5.01373 5.65434 5.25435C5.42625 5.47626 5.25071 5.7464 5.14059 6.04498C5.04622 6.28748 4.93434 6.65123 4.90372 7.32185C4.87059 8.04685 4.86372 8.26435 4.86372 10.1C4.86372 11.9356 4.87059 12.1531 4.90372 12.8781C4.93434 13.5487 5.04622 13.9125 5.14059 14.155C5.25059 14.4531 5.42622 14.7237 5.65434 14.9456C5.87622 15.1737 6.14684 15.3493 6.44497 15.4593C6.68747 15.5537 7.05122 15.6656 7.72184 15.6962C8.44684 15.7294 8.66372 15.7362 10.5 15.7362C12.3362 15.7362 12.5531 15.7294 13.2781 15.6962C13.9487 15.6656 14.3125 15.5537 14.555 15.4593C14.8756 15.3343 15.105 15.1862 15.3456 14.9456C15.5737 14.7237 15.7493 14.4531 15.8593 14.155C15.9537 13.9125 16.0656 13.5487 16.0962 12.8781C16.1293 12.1531 16.1362 11.9356 16.1362 10.1C16.1362 8.26435 16.1293 8.04685 16.0962 7.32185C16.0656 6.65123 15.9537 6.28748 15.8593 6.04498C15.7343 5.72435 15.5862 5.49498 15.3456 5.25435C15.1237 5.02627 14.8535 4.85073 14.555 4.7406C14.3125 4.64623 13.9487 4.53435 13.2781 4.50373ZM9.62184 12.2193C10.1123 12.4235 10.6583 12.451 11.1668 12.2973C11.6753 12.1436 12.1146 11.818 12.4097 11.3764C12.7049 10.9347 12.8375 10.4043 12.785 9.87567C12.7325 9.34706 12.4981 8.85308 12.1218 8.4781C11.882 8.2384 11.592 8.05486 11.2727 7.94069C10.9534 7.82653 10.6127 7.78458 10.2753 7.81786C9.93782 7.85114 9.61194 7.95884 9.3211 8.13318C9.03025 8.30753 8.78168 8.54419 8.59328 8.82613C8.40488 9.10807 8.28134 9.42828 8.23154 9.7637C8.18175 10.0991 8.20694 10.4414 8.30531 10.7659C8.40367 11.0904 8.57277 11.3891 8.80042 11.6404C9.02807 11.8917 9.30861 12.0895 9.62184 12.2193ZM8.00122 7.60122C8.32936 7.27308 8.71892 7.01279 9.14766 6.8352C9.57639 6.65761 10.0359 6.56621 10.5 6.56621C10.964 6.56621 11.4235 6.65761 11.8523 6.8352C12.281 7.01279 12.6706 7.27308 12.9987 7.60122C13.3269 7.92937 13.5872 8.31892 13.7647 8.74766C13.9423 9.1764 14.0337 9.63591 14.0337 10.1C14.0337 10.564 13.9423 11.0236 13.7647 11.4523C13.5872 11.881 13.3269 12.2706 12.9987 12.5987C12.336 13.2614 11.4372 13.6337 10.5 13.6337C9.56276 13.6337 8.66393 13.2614 8.00122 12.5987C7.33851 11.936 6.9662 11.0372 6.9662 10.1C6.9662 9.16276 7.33851 8.26393 8.00122 7.60122ZM14.8175 7.09248C14.8988 7.01577 14.9639 6.92353 15.0089 6.82121C15.0539 6.71889 15.078 6.60858 15.0796 6.49681C15.0812 6.38503 15.0604 6.27407 15.0184 6.17048C14.9764 6.0669 14.914 5.97279 14.8349 5.89375C14.7559 5.81471 14.6618 5.75232 14.5582 5.7103C14.4546 5.66827 14.3437 5.64746 14.2319 5.64909C14.1201 5.65072 14.0098 5.67476 13.9075 5.71979C13.8052 5.76481 13.7129 5.82991 13.6362 5.91123C13.487 6.06937 13.4054 6.27943 13.4085 6.49681C13.4117 6.71419 13.4995 6.92177 13.6532 7.0755C13.8069 7.22923 14.0145 7.31699 14.2319 7.32016C14.4493 7.32333 14.6593 7.24166 14.8175 7.09248Z" fill="#8D8D8D"/>
</svg>
