<svg width="31" height="30" viewBox="0 0 31 30" fill="none" xmlns="http://www.w3.org/2000/svg">
<path d="M18.9823 11.5459H12.9171C11.7271 11.5459 10.7622 12.5004 10.7622 13.6769V16.6753C10.7622 17.8529 11.7271 18.8063 12.9171 18.8063H18.9823C20.1723 18.8063 21.1372 17.8518 21.1372 16.6753V13.6769C21.1372 12.4994 20.1723 11.5459 18.9823 11.5459ZM17.5257 15.3224L14.6881 16.6608C14.6707 16.669 14.6516 16.6727 14.6324 16.6715C14.6133 16.6703 14.5947 16.6644 14.5785 16.6541C14.5622 16.6439 14.5488 16.6297 14.5395 16.6129C14.5302 16.5961 14.5253 16.5773 14.5252 16.5581V13.7983C14.5254 13.7789 14.5305 13.7598 14.5402 13.7429C14.5498 13.726 14.5635 13.7118 14.5802 13.7017C14.5968 13.6917 14.6157 13.686 14.6352 13.6853C14.6546 13.6846 14.6739 13.6888 14.6912 13.6977L17.5277 15.119C17.5464 15.1288 17.562 15.1435 17.5728 15.1616C17.5836 15.1796 17.5892 15.2003 17.589 15.2214C17.5888 15.2424 17.5828 15.263 17.5716 15.2808C17.5604 15.2986 17.5445 15.313 17.5257 15.3224Z" fill="white"/>
<path d="M9.72495 6.85003C9.17463 6.85003 8.64684 7.06864 8.2577 7.45778C7.86857 7.84692 7.64995 8.3747 7.64995 8.92503V21.375C7.64995 21.9254 7.86857 22.4531 8.2577 22.8423C8.64684 23.2314 9.17463 23.45 9.72495 23.45H22.175C22.7253 23.45 23.2531 23.2314 23.6422 22.8423C24.0313 22.4531 24.25 21.9254 24.25 21.375V8.92503C24.25 8.3747 24.0313 7.84692 23.6422 7.45778C23.2531 7.06864 22.7253 6.85003 22.175 6.85003H9.72495ZM9.72495 4.77502H22.175C23.2756 4.77502 24.3312 5.21226 25.1094 5.99053C25.8877 6.76881 26.325 7.82438 26.325 8.92503V21.375C26.325 22.4757 25.8877 23.5312 25.1094 24.3095C24.3312 25.0878 23.2756 25.525 22.175 25.525H9.72495C8.6243 25.525 7.56873 25.0878 6.79046 24.3095C6.01218 23.5312 5.57495 22.4757 5.57495 21.375V8.92503C5.57495 7.82438 6.01218 6.76881 6.79046 5.99053C7.56873 5.21226 8.6243 4.77502 9.72495 4.77502Z" fill="white"/>
</svg>
